<svg width="512" height="512" viewBox="0 0 512 512" fill="none" xmlns="http://www.w3.org/2000/svg">
  <defs>
    <linearGradient id="bg" x1="72" y1="48" x2="440" y2="464" gradientUnits="userSpaceOnUse">
      <stop stop-color="#0A1F1A"/>
      <stop offset="1" stop-color="#059467"/>
    </linearGradient>
    <linearGradient id="badge" x1="388" y1="66" x2="388" y2="146" gradientUnits="userSpaceOnUse">
      <stop stop-color="#FBBF24"/>
      <stop offset="1" stop-color="#F97316"/>
    </linearGradient>
  </defs>
  <rect x="20" y="20" width="472" height="472" rx="104" fill="url(#bg)"/>
  <ellipse cx="256" cy="112" rx="180" ry="76" fill="white" fill-opacity="0.1"/>
  <ellipse cx="174" cy="166" rx="64" ry="60" fill="#F8FAFC" stroke="#0F172A" stroke-opacity="0.18" stroke-width="8"/>
  <ellipse cx="256" cy="150" rx="68" ry="68" fill="#F8FAFC" stroke="#0F172A" stroke-opacity="0.18" stroke-width="8"/>
  <ellipse cx="338" cy="166" rx="64" ry="60" fill="#F8FAFC" stroke="#0F172A" stroke-opacity="0.18" stroke-width="8"/>
  <ellipse cx="256" cy="256" rx="122" ry="82" fill="#F8FAFC" stroke="#0F172A" stroke-opacity="0.18" stroke-width="8"/>
  <path d="M176 245L226 283L292 227L342 286" stroke="#059467" stroke-width="18" stroke-linecap="round" stroke-linejoin="round"/>
  <path d="M226 283V360" stroke="#059467" stroke-width="18" stroke-linecap="round"/>
  <path d="M292 227V352" stroke="#059467" stroke-width="18" stroke-linecap="round"/>
  <circle cx="176" cy="245" r="18" fill="#10B981"/>
  <circle cx="226" cy="283" r="18" fill="#10B981"/>
  <circle cx="292" cy="227" r="18" fill="#10B981"/>
  <circle cx="342" cy="286" r="18" fill="#10B981"/>
  <circle cx="226" cy="360" r="18" fill="#10B981"/>
  <circle cx="292" cy="352" r="18" fill="#10B981"/>
  <circle cx="388" cy="106" r="40" fill="url(#badge)"/>
  <path d="M388 72L396 91L416 99L397 107L389 128L381 107L360 99L380 91L388 72Z" fill="white"/>
</svg>
